<?xml version="1.0" encoding="UTF-8" standalone="no"?>
<!-- Created with Inkscape (http://www.inkscape.org/) -->
<svg xmlns:rdf="http://www.w3.org/1999/02/22-rdf-syntax-ns#" xmlns="http://www.w3.org/2000/svg" version="1.1" xmlns:cc="http://creativecommons.org/ns#" xmlns:dc="http://purl.org/dc/elements/1.1/" viewBox="0 0 219.7 19.4">
 <metadata>
  <rdf:RDF>
   <cc:Work rdf:about="">
    <dc:format>image/svg+xml</dc:format>
    <dc:type rdf:resource="http://purl.org/dc/dcmitype/StillImage"/>
    <dc:title/>
   </cc:Work>
  </rdf:RDF>
 </metadata>
 <g transform="translate(-265.15739,-522.66343)">
  <g fill="#231f20" transform="matrix(0.92846904,0,0,0.92846904,26.824104,38.080371)">
   <path d="m296.2,526,6.025,0,9.247,16.02-5.392,0-6.812-11.81-6.477,11.81-5.388,0,8.798-16.02" fill-rule="evenodd"/>
   <path d="m331.9,526,18.73,0,0.0112,4.03-18.74,0,0-4.03" fill-rule="evenodd"/>
   <path d="m338.7,542,5.07,0,0-10.81-5.07,0,0,10.81z" fill-rule="evenodd"/>
   <path d="m311.9,526,18.73,0,0.0113,4.03-18.74,0,0-4.03" fill-rule="evenodd"/>
   <path d="m318.7,542,5.071,0,0-10.81-5.071,0,0,10.81z" fill-rule="evenodd"/>
   <path d="m390.5,526,18.73,0,0.0113,4.03-18.74,0,0-4.03" fill-rule="evenodd"/>
   <path d="m397.3,542,5.07,0,0-10.81-5.07,0,0,10.81z" fill-rule="evenodd"/>
   <path d="m352.7,542,5.18,0,0-16.02-5.18,0,0,16.02z" fill-rule="evenodd"/>
   <path d="m358.8,542,10.09,0,0-4.265-10.09,0,0,4.265z" fill-rule="evenodd"/>
   <path d="m265.2,526,0,16.02,5.082,0,0-6.414,8.954,0c2.146,0,2.168,2.538,0,2.538h-7.62v3.876h8.777c1.41,0,2.509-0.0947,3.308-0.3931,2.059-0.7695,2.706-3.237,2.252-5.366-0.2589-1.212-0.8584-1.689-1.611-2.047-0.0859-0.041-0.981-0.4165-1.102-0.3755,0.35-0.1386,1.213-0.4028,1.701-1.115,0.5259-0.7681,0.6104-2.328,0.4516-3.392-0.2592-1.739-1.768-3.327-5.179-3.327h-8.596v3.803h7.056c2.206,0,2.206,2.447,0,2.447h-8.39v-6.25h-5.082" fill-rule="evenodd"/>
   <path d="m370.7,526,5.293,0,0,6.25,11.81,0,0,3.353-11.81,0,0,6.414-5.293,0,0-16.02" fill-rule="evenodd"/>
   <path d="m377.3,529.8,11.17,0,0-3.804-11.17,0,0,3.804z" fill-rule="evenodd"/>
   <path d="m377.3,542,11.51,0,0-3.876-11.51,0,0,3.876z" fill-rule="evenodd"/>
   <path d="m480.3,525.5,0-2.37-0.845,0,0-0.4825,2.266,0,0,0.4825-0.8438,0,0,2.37-0.5775,0" fill-rule="nonzero"/>
   <path d="m482.1,525.5,0-2.852,0.8625,0,0.5175,1.946,0.5112-1.946,0.8638,0,0,2.852-0.535,0,0-2.246-0.5662,2.246-0.555,0-0.5638-2.246,0,2.246-0.535,0" fill-rule="nonzero"/>
   <path d="m411.6,526,5.294,0,0,6.25,11.81,0,0,3.353-11.81,0,0,6.414-5.294,0,0-16.02" fill-rule="evenodd"/>
   <path d="m418.1,529.8,11.17,0,0-3.804-11.17,0,0,3.804z" fill-rule="evenodd"/>
   <path d="m418.1,542,11.51,0,0-3.876-11.51,0,0,3.876z" fill-rule="evenodd"/>
   <path d="m432.1,534.3,5.37,0,0,1.311c0,2.286,1.928,2.286,5.169,2.286h0.3262c4.702,0,5.175,0,5.175-2.286h5.186v2.148c0,4.265-3.848,4.348-8.534,4.348h-4.935c-5.761,0-7.758-1.27-7.758-7.232v-0.5761" fill-rule="evenodd"/>
   <path d="m437.4,532.7,0-0.415c0-2.286,1.928-2.286,5.169-2.286h0.3262c4.372,0,5.175,0.0176,5.175,1.856h4.882l-0.005-1.717c-0.004-2.301-1.538-3.54-2.891-3.958-1.415-0.4375-3.284-0.3912-5.334-0.3912h-4.935c-5.661,0-7.758,1.214-7.758,6.912l5.37-0.0005" fill-rule="evenodd"/>
   <path d="m462.2,531.7,0,3.991,8.065,0,0.001-3.991-8.066,0" fill-rule="evenodd"/>
   <path d="m456,542,5.038,0,0-16.02-5.038,0,0,16.02z" fill-rule="evenodd"/>
   <path d="m471.5,542,5.038,0,0-16.02-5.038,0,0,16.02z" fill-rule="evenodd"/>
  </g>
 </g>
</svg>
